<svg width="48" height="48" viewBox="0 0 48 48" fill="none" xmlns="http://www.w3.org/2000/svg">
<path d="M48 24C48 37.2548 37.2548 48 24 48C10.7452 48 0 37.2548 0 24C0 10.7452 10.7452 0 24 0C37.2548 0 48 10.7452 48 24ZM0.960001 24C0.960001 36.7246 11.2754 47.04 24 47.04C36.7246 47.04 47.04 36.7246 47.04 24C47.04 11.2754 36.7246 0.960001 24 0.960001C11.2754 0.960001 0.960001 11.2754 0.960001 24Z" fill="#282A33"/>
<path class="red" d="M48 24C48 20.8483 47.3792 17.7274 46.1731 14.8156C44.967 11.9038 43.1992 9.25804 40.9706 7.02944C38.742 4.80083 36.0962 3.033 33.1844 1.82689C30.2726 0.620778 27.1517 -1.37766e-07 24 0L24 0.960001C27.0257 0.960001 30.0217 1.55595 32.817 2.71382C35.6124 3.87168 38.1523 5.5688 40.2917 7.70826C42.4312 9.84772 44.1283 12.3876 45.2862 15.183C46.4441 17.9783 47.04 20.9743 47.04 24H48Z" fill="#D2233C"/>
</svg>
