<svg width="25" height="25" viewBox="0 0 25 25" fill="none" xmlns="http://www.w3.org/2000/svg">
<rect width="25" height="25" rx="5" fill="#282A33"/>
<path d="M5.22189 12.0883C6.72488 11.2604 8.40263 10.5694 9.97024 9.87492C12.6671 8.73739 15.3747 7.61957 18.1097 6.57889C18.6418 6.40157 19.5979 6.22816 19.6916 7.01673C19.6403 8.13294 19.4291 9.24262 19.2843 10.3523C18.9166 12.7926 18.4917 15.2245 18.0773 17.6568C17.9345 18.4669 16.9196 18.8863 16.2702 18.3679C14.7096 17.3137 13.137 16.2698 11.5962 15.1912C11.0915 14.6784 11.5595 13.9419 12.0103 13.5757C13.2957 12.3089 14.6589 11.2327 15.8771 9.90048C16.2057 9.10692 15.2348 9.77571 14.9145 9.98062C13.1548 11.1933 11.4382 12.4799 9.58287 13.5457C8.63519 14.0674 7.53065 13.6215 6.5834 13.3304C5.73407 12.9788 4.48949 12.6245 5.22181 12.0883L5.22189 12.0883Z" fill="white"/>
</svg>
